<svg xmlns="http://www.w3.org/2000/svg" xmlns:xlink="http://www.w3.org/1999/xlink" version="1.1" id="Layer_1" x="0px" y="0px" viewBox="0 0 352 429.1" style="enable-background:new 0 0 352 429.1;" xml:space="preserve">
<style type="text/css">
	.st0{fill:#004BB7;}
</style>
<path class="st0" d="M277.2,166.9H130.6c-5.1,0-9.2,4.1-9.2,9.2s4.1,9.2,9.2,9.2h146.5c5.1,0,9.2-4.1,9.2-9.1  C286.4,171,282.3,166.9,277.2,166.9z"/>
<path class="st0" d="M93.5,166.9H66.4c-5.1,0-9.2,4.1-9.2,9.2s4.1,9.2,9.2,9.2h27.1c5.1,0,9.2-4.1,9.2-9.2S98.6,166.9,93.5,166.9z"/>
<path class="st0" d="M277.2,240.3H130.6c-5.1,0-9.2,4.1-9.2,9.2c0,5.1,4.1,9.2,9.2,9.2h146.5c5.1,0,9.2-4.1,9.2-9.1  S282.3,240.4,277.2,240.3z"/>
<path class="st0" d="M93.5,240.3H66.4c-5.1,0-9.2,4.1-9.2,9.2c0,5.1,4.1,9.2,9.2,9.2h27.1c5.1,0,9.2-4.1,9.2-9.2  C102.7,244.4,98.6,240.3,93.5,240.3z"/>
<path class="st0" d="M277.2,313.8H130.6c-5.1,0-9.2,4.1-9.2,9.2c0,5.1,4.1,9.2,9.2,9.2h146.5c5.1,0,9.2-4.1,9.2-9.1  C286.4,318,282.3,313.8,277.2,313.8z"/>
<path class="st0" d="M93.5,313.8H66.4c-5.1,0-9.2,4.1-9.2,9.2c0,5.1,4.1,9.2,9.2,9.2h27.1c5.1,0,9.2-4.1,9.2-9.2  C102.7,317.9,98.6,313.8,93.5,313.8z"/>
<g>
	<path class="st0" d="M263,412.1H89c-41.4,0-75-33.6-75-75v-245c0-41.4,33.6-75,75-75h147.5c8,0,15.7,3,21.6,8.5l69,63.6   c6.9,6.3,10.8,15.3,10.8,24.7v223.2C338,378.4,304.4,412.1,263,412.1z M89,37.3c-30.2,0-54.7,24.6-54.7,54.7v245   c0,30.2,24.6,54.7,54.7,54.7h174c30.2,0,54.7-24.6,54.7-54.7V113.8c0-3.7-1.6-7.3-4.3-9.8l-69-63.6c-2.2-2-5-3.1-7.9-3.1H89z"/>
</g>
</svg>