<svg xmlns="http://www.w3.org/2000/svg" width="286.054" height="286.054">

 <g>
  <title>background</title>
  <rect fill="none" id="canvas_background" height="402" width="582" y="-1" x="-1"/>
 </g>
 <g>
  <title>Layer 1</title>
  <g stroke="null" id="svg_1">
   <path stroke="null" id="svg_2" fill="#ff0000" d="m143.026997,56.000005c-48.060865,0 -87.026997,38.966131 -87.026997,87.026997c0,48.066342 38.966131,87.026997 87.026997,87.026997c48.066342,0 87.026997,-38.955179 87.026997,-87.026997c0,-48.060865 -38.961264,-87.026997 -87.026997,-87.026997zm0,157.736166c-39.053142,0 -70.709169,-31.656027 -70.709169,-70.709169s31.656027,-70.709169 70.709169,-70.709169s70.709169,31.656027 70.709169,70.709169s-31.656027,70.709169 -70.709169,70.709169zm0.005476,-119.569558c-6.233121,0 -10.949337,3.252857 -10.949337,8.506956l0,48.191077c0,5.259576 4.715608,8.50148 10.949337,8.50148c6.081004,0 10.949337,-3.377592 10.949337,-8.50148l0,-48.191077c-0.000608,-5.129364 -4.868333,-8.506956 -10.949337,-8.506956zm0,76.056364c-5.988518,0 -10.862326,4.873809 -10.862326,10.867194c0,5.983041 4.873809,10.85685 10.862326,10.85685s10.85685,-4.873809 10.85685,-10.85685c-0.000608,-5.993994 -4.868333,-10.867194 -10.85685,-10.867194z"/>
  </g>
  <g id="svg_3"/>
  <g id="svg_4"/>
  <g id="svg_5"/>
  <g id="svg_6"/>
  <g id="svg_7"/>
  <g id="svg_8"/>
  <g id="svg_9"/>
  <g id="svg_10"/>
  <g id="svg_11"/>
  <g id="svg_12"/>
  <g id="svg_13"/>
  <g id="svg_14"/>
  <g id="svg_15"/>
  <g id="svg_16"/>
  <g id="svg_17"/>
 </g>
</svg>